Coordinates
version=1
nRows=8
nColumns=34
inDegrees=yes

Units are S.I. units (second, meters, Newtons, ...)
If the header above contains a line with 'inDegrees', this indicates whether rotational values are in degrees (yes) or radians (no).

endheader
time	pelvis_tilt	pelvis_list	pelvis_rotation	pelvis_tx	pelvis_ty	pelvis_tz	hip_flexion_r	hip_adduction_r	hip_rotation_r	knee_angle_r	ankle_angle_r	subtalar_angle_r	mtp_angle_r	hip_flexion_l	hip_adduction_l	hip_rotation_l	knee_angle_l	ankle_angle_l	subtalar_angle_l	mtp_angle_l	lumbar_extension	lumbar_bending	lumbar_rotation	arm_flex_r	arm_add_r	arm_rot_r	elbow_flex_r	pro_sup_r	arm_flex_l	arm_add_l	arm_rot_l	elbow_flex_l	pro_sup_l
      0.00000000	     -1.47230095	     -4.03651413	     -3.64845934	     -1.56783987	      0.99008104	      0.02919945	     -0.41233006	      6.24513687	     -1.09303438	      7.50036176	      1.47957854	    -11.33709761	      0.00000000	     -2.81226140	     -3.42724560	     -3.81583397	      1.51487163	     14.09649783	     -0.25564356	      0.00000000	     -0.45648019	      5.89096597	     -5.17359400	      3.16491150	     -5.25018438	      9.08903393	     22.63962010	     85.88280472	     -4.91021001	     -3.92616206	      2.23000295	     29.75385502	     83.28140625
      0.01666670	     -4.35236271	     -1.61085720	     -3.82863453	     -1.56442107	      0.98455248	      0.02929796	      3.14732638	      4.16493162	      0.14231998	      7.47661801	      5.72895798	     -8.66840786	      0.00000000	      1.49030962	     -0.43236711	     -4.29111320	      3.02747686	     13.79603156	      0.18972950	      0.00000000	      4.31898567	      3.73581257	     -5.16113864	      1.72535354	     -4.87457457	      8.37926621	     22.10708802	     86.16100602	     -5.58887569	     -4.15897760	      0.62678314	     28.81375029	     82.81354022
      0.03333330	     -4.92746925	     -0.34059593	     -4.22279120	     -1.56412870	      0.98332957	      0.03037580	      3.63930738	      2.73798351	     -0.19541166	      6.91907999	      7.08641958	     -6.64923062	      0.00000000	      2.13759838	      0.88077104	     -5.97206557	      3.38263287	     13.51431381	      1.13692571	      0.00000000	      5.58419324	      2.41124071	     -4.98620198	      1.47747642	     -4.75944349	      8.94146228	     22.12190758	     86.67830526	     -5.87163913	     -4.93883828	      1.83037360	     28.58141553	     82.81758938
      0.05000000	     -4.45260917	      0.12622002	     -4.30743836	     -1.56424597	      0.98542911	      0.03058631	      2.93117374	      2.14720742	     -0.30291625	      6.57287342	      7.93826333	     -5.33282906	      0.00000000	      1.11967122	      1.58052540	     -6.17817711	      2.84203467	     13.04524957	      1.14577254	      0.00000000	      5.44253736	      1.94302879	     -4.63286757	      1.39129757	     -4.96407527	     10.99983329	     22.09390167	     88.11778260	     -5.53327898	     -6.02203754	      7.36052526	     27.80670757	     82.85942977
      0.06666670	     -4.28757693	      0.22245218	     -4.49284035	     -1.56486354	      0.98646596	      0.03107422	      2.58145078	      2.11679059	      0.25540214	      6.16853671	      8.37779250	     -5.15368572	      0.00000000	      0.70899506	      1.77586774	     -6.29223935	      2.43072719	     12.75668536	      1.08452882	      0.00000000	      5.39892207	      1.94464076	     -4.50149277	      1.35863713	     -4.93302525	     11.09767230	     22.10170840	     88.19356599	     -5.50583815	     -6.04605307	      7.62561327	     27.67236689	     82.78472058
      0.08333330	     -4.23580103	      0.22110989	     -4.41879238	     -1.56581543	      0.98717850	      0.03108223	      2.50121918	      2.16040424	      0.39320157	      6.04005805	      8.45839636	     -5.09842225	      0.00000000	      0.71558003	      1.80276457	     -6.32500156	      2.32465980	     12.66513591	      1.06941634	      0.00000000	      5.37638759	      1.92647363	     -4.53204581	      1.51268281	     -4.96232312	     11.11104085	     22.14145927	     88.20819449	     -5.22323891	     -6.04716566	      7.67105835	     27.71133772	     82.77152635
      0.10000000	     -4.20423731	      0.22130621	     -4.42764568	     -1.56613141	      0.98739428	      0.03117744	      2.46509496	      2.17175987	      0.40221595	      6.04676699	      8.46304496	     -5.09500713	      0.00000000	      0.76742316	      1.80830680	     -6.32287106	      2.29881521	     12.65748461	      1.07049789	      0.00000000	      5.37254475	      1.92682366	     -4.53467137	      1.51367146	     -4.96438285	     11.11194827	     22.14078118	     88.20897891	     -5.21255086	     -6.04967754	      7.67299115	     27.71022502	     82.77075131
      0.11666670	     -2.79768943	      0.05376237	     -4.38012416	     -1.56655629	      0.98908143	      0.03118989	      0.58653025	      2.28844470	      0.99786543	      5.47777098	      8.71600939	     -4.88799137	      0.00000000	     -0.96113344	      1.75785980	     -5.99790913	      1.69472833	     11.55973855	      0.41926506	      0.00000000	      3.33187880	      1.93367777	     -4.21905595	      2.07034768	     -5.06908793	     11.46144125	     22.01427324	     88.48885700	     -3.68823514	     -6.17364723	      8.58880042	     26.44658739	     82.46012034
